# xmcd
#
# Track frame offsets:
#       150
#       23310
#       48386
#       75905
#       103444
#       123628
#       147158
#       187208
#       208850
#       226344
#       254772
#
# Disc length: 3948 seconds
#
# Revision: 1
# Processed by: cddbd v1.5.2PL0 Copyright (c) Steve Scherf et al.
# Submitted via: FreeDbEdit v0.1
#
DISCID=9c0f6a0b
DTITLE=Neil Young - Are You Passionate?
DYEAR=2002
DGENRE=Ballad
TTITLE0=You're My Girl
TTITLE1=Mr. Disappointment
TTITLE2=Differently
TTITLE3=Quit (Don't Say You Love Me)
TTITLE4=Let's Roll
TTITLE5=Are You Passionate?
TTITLE6=Goin' Home
TTITLE7=When I Hold You in My Arms
TTITLE8=Be With You
TTITLE9=Two Old Friends
TTITLE10=She's a Healer
EXTD=
EXTT0=
EXTT1=
EXTT2=
EXTT3=
EXTT4=
EXTT5=
EXTT6=
EXTT7=
EXTT8=
EXTT9=
EXTT10=
PLAYORDER=
